<svg width="42" height="37" viewBox="0 0 42 37" fill="none" xmlns="http://www.w3.org/2000/svg">
<g clip-path="url(#clip0_517_652)">
<path d="M13.8679 1.99709e-06H28.1321C29.9535 -0.000915713 31.7573 0.314457 33.4403 0.928093C35.1233 1.54173 36.6525 2.44159 37.9405 3.57623C39.2285 4.71086 40.2499 6.05801 40.9465 7.54066C41.6431 9.02331 42.0011 10.6124 42 12.217V24.783C42.0011 26.3876 41.6431 27.9767 40.9465 29.4593C40.2499 30.942 39.2285 32.2891 37.9405 33.4238C36.6525 34.5584 35.1233 35.4583 33.4403 36.0719C31.7573 36.6856 29.9535 37.0009 28.1321 37H13.8679C12.0465 37.0009 10.2427 36.6856 8.55967 36.0719C6.87666 35.4583 5.34747 34.5584 4.0595 33.4238C2.77154 32.2891 1.75007 30.942 1.05351 29.4593C0.356951 27.9767 -0.00103946 26.3876 2.26697e-06 24.783V12.217C-0.00103946 10.6124 0.356951 9.02331 1.05351 7.54066C1.75007 6.05801 2.77154 4.71086 4.0595 3.57623C5.34747 2.44159 6.87666 1.54173 8.55967 0.928093C10.2427 0.314457 12.0465 -0.000915713 13.8679 1.99709e-06Z" fill="url(#paint0_linear_517_652)"/>
<path d="M28.3275 21.8882L30.4883 23.4729C31.0166 23.8615 31.2807 24.057 31.4947 24.1012C31.7067 24.1471 31.9301 24.1276 32.1277 24.0458C32.3253 23.9641 32.4851 23.8251 32.5804 23.6521C32.6755 23.4776 32.6755 23.1867 32.6755 22.5677V14.423C32.6755 13.8157 32.6755 13.5132 32.5804 13.3386C32.4851 13.1656 32.3253 13.0266 32.1277 12.9449C31.9301 12.8631 31.7067 12.8436 31.4947 12.8895C31.2807 12.936 31.0166 13.1222 30.4883 13.5178L28.3275 15.1025C28.0875 15.2643 27.863 15.4433 27.6566 15.6377C27.3731 15.9334 27.1836 16.2899 27.1072 16.671C27.0696 16.9349 27.0572 17.2011 27.0702 17.4668V19.5193C27.0572 19.785 27.0696 20.0512 27.1072 20.3151C27.1836 20.6962 27.3731 21.0527 27.6566 21.3483C27.8628 21.5444 28.0872 21.725 28.3275 21.8882Z" fill="white"/>
<path d="M9.32454 14.9187C9.32454 14.1577 9.32454 13.7761 9.4936 13.4852C9.64213 13.2288 9.8788 13.0204 10.1698 12.8895C10.5 12.7406 10.9332 12.7406 11.797 12.7406H19.6793C21.943 12.7406 23.0762 12.7406 23.94 13.1292C24.7004 13.4713 25.3189 14.0161 25.7072 14.686C26.1483 15.4469 26.1483 16.4452 26.1483 18.4372V22.0813C26.1483 22.8423 26.1483 23.2239 25.9792 23.5148C25.8307 23.7712 25.594 23.9797 25.303 24.1105C24.9728 24.2594 24.5396 24.2594 23.6759 24.2594H15.791C13.5272 24.2594 12.394 24.2594 11.5302 23.8708C10.7698 23.5288 10.1513 22.9839 9.76303 22.314C9.32189 21.5531 9.3219 20.5548 9.3219 18.5628L9.32454 14.9187Z" fill="white"/>
</g>
<defs>
<linearGradient id="paint0_linear_517_652" x1="21" y1="1.99708e-06" x2="21" y2="37" gradientUnits="userSpaceOnUse">
<stop stop-color="#03484C"/>
<stop offset="1" stop-color="#53AC59"/>
</linearGradient>
<clipPath id="clip0_517_652">
<rect width="42" height="37" fill="white"/>
</clipPath>
</defs>
</svg>
