<svg width="176" height="44" viewBox="0 0 176 44" fill="none" xmlns="http://www.w3.org/2000/svg">
<path d="M48.7771 9.69732V17.5053H56.7073C59.6944 17.5053 61.5181 16.2387 61.5181 13.6161C61.5181 10.9934 59.6944 9.69732 56.7073 9.69732H48.7771ZM48.7771 20.972V29.6594H47.4003C46.7316 29.6594 46.0903 29.3564 45.6175 28.8172C45.1447 28.278 44.8791 27.5466 44.8791 26.784V6.23022H56.7339C62.7872 6.23022 65.3894 8.70247 65.3894 13.6163C65.3894 18.5301 62.7872 20.972 56.7339 20.972H48.7771Z" fill="#F8F4E5"/>
<path d="M67.8606 7.65265H71.8705V29.6594H70.3934C70.0608 29.6594 69.7315 29.5847 69.4242 29.4396C69.1169 29.2945 68.8377 29.0817 68.6025 28.8135C68.3674 28.5454 68.1808 28.227 68.0535 27.8765C67.9262 27.5261 67.8607 27.1506 67.8606 26.7713V7.65265Z" fill="#F8F4E5"/>
<path d="M84.6013 26.7654C86.105 26.7654 87.9905 26.3811 89.814 24.2376V17.8889C88.6235 16.7765 86.105 16.1245 84.5761 16.1245C81.4436 16.1245 79.3385 18.4131 79.3385 21.5795C79.3385 24.806 81.4688 26.7654 84.6013 26.7654ZM77.4589 15.551C78.9375 14.0136 80.9422 13.2599 83.5237 13.2599C86.2051 13.2599 88.2851 14.1342 89.764 15.8828H89.8893L90.1147 13.6208H93.8989V29.6604H90.265L90.0145 27.0369H89.8892C88.3604 28.9963 86.2307 29.961 83.5237 29.961C80.9422 29.961 78.9375 29.2074 77.4589 27.6699C75.9803 26.1324 75.2537 24.1124 75.2537 21.5803C75.2537 19.0782 75.9804 17.0885 77.4593 15.551" fill="#F8F4E5"/>
<path d="M165.647 26.7654C167.151 26.7654 169.037 26.3811 170.86 24.2376V17.8889C169.67 16.7765 167.151 16.1245 165.622 16.1245C162.49 16.1245 160.385 18.4131 160.385 21.5795C160.385 24.806 162.515 26.7654 165.647 26.7654ZM158.505 15.551C159.984 14.0136 161.988 13.2599 164.57 13.2599C167.251 13.2599 169.331 14.1342 170.81 15.8828H170.935L171.161 13.6208H174.945V29.6604H171.311L171.061 27.0369H170.935C169.407 28.9963 167.277 29.961 164.57 29.961C161.988 29.961 159.984 29.2074 158.505 27.6699C157.026 26.1324 156.3 24.1124 156.3 21.5803C156.3 19.0782 157.026 17.0885 158.505 15.551Z" fill="#F8F4E5"/>
<path d="M114.599 15.5207C116.002 17.0281 116.704 19.048 116.704 21.5803V29.6588H112.619V21.5803C112.619 18.3546 110.539 16.4555 107.356 16.4555C104.223 16.4555 102.118 18.3849 102.118 21.5201V29.6594H98.1089V13.6216H101.742L101.968 15.9733H102.094C103.672 14.1644 105.928 13.2599 108.81 13.2599C111.291 13.2598 113.22 14.0134 114.599 15.5207Z" fill="#F8F4E5"/>
<path d="M133.82 20.3743C133.72 17.8722 131.891 16.4253 128.908 16.4253C126.402 16.4253 124.498 17.9931 124.197 20.3743H133.82ZM138.03 22.997H124.197C124.698 25.65 126.728 26.7051 130.512 26.7051C131.701 26.6942 132.885 26.5427 134.045 26.2531C135.324 25.9512 136.327 25.6199 137.078 25.2279V28.6948C135.933 29.1093 134.759 29.4119 133.57 29.5993C132.217 29.8288 130.852 29.9497 129.485 29.9609C123.445 29.9609 119.886 26.9766 119.886 21.6405C119.886 19.1383 120.714 17.1183 122.342 15.5809C123.971 14.0434 126.177 13.2596 128.933 13.2596C131.715 13.2596 133.946 13.9834 135.575 15.4308C137.203 16.8783 138.03 18.8369 138.03 21.3391V22.997Z" fill="#F8F4E5"/>
<path d="M154.972 26.4339V29.6897C153.993 29.8611 153.005 29.9517 152.014 29.961C149.133 29.961 147.002 29.3883 145.649 28.2728C144.32 27.1576 143.644 25.1376 143.644 22.2736V16.6967H139.359V13.6218H143.644V8.55698H147.654V13.6218H154.52V16.6967H147.654V22.0928C147.654 25.3185 148.907 26.6753 152.24 26.6753L154.972 26.4339Z" fill="#F8F4E5"/>
<path d="M0.444445 0H14.4144V15.9322H0.444445V0Z" fill="#F8F4E5"/>
<path d="M0.444445 18.3274H14.4144V34.2594H9.32295C6.96823 34.2594 4.70994 33.1926 3.0449 31.2937C1.37986 29.3948 0.444445 26.8194 0.444445 24.1339L0.444445 18.3274Z" fill="#F8F4E5"/>
<path d="M30.611 7.96729C30.6043 10.0869 29.8597 12.1167 28.541 13.6104C27.2223 15.104 25.4374 15.9392 23.5788 15.9323H16.5451V0.00206396H23.5788C24.4992 -0.00164126 25.4112 0.20146 26.2627 0.599767C27.1142 0.998075 27.8886 1.58379 28.5416 2.32345C29.1946 3.06311 29.7135 3.94224 30.0686 4.91062C30.4236 5.879 30.6079 6.91766 30.611 7.96729Z" fill="#F8F4E5"/>
<path d="M30.611 26.1418C30.6045 28.2615 29.86 30.2915 28.5413 31.7853C27.2225 33.279 25.4375 34.1142 23.5788 34.107C22.6584 34.1107 21.7464 33.9076 20.8948 33.5093C20.0432 33.111 19.2688 32.5253 18.6157 31.7857C17.9626 31.046 17.4436 30.1669 17.0885 29.1985C16.7333 28.2302 16.5488 27.1915 16.5456 26.1418C16.5488 25.0921 16.7333 24.0535 17.0885 23.0851C17.4436 22.1167 17.9626 21.2376 18.6157 20.498C19.2688 19.7583 20.0432 19.1726 20.8948 18.7743C21.7464 18.376 22.6584 18.1729 23.5788 18.1766C25.4375 18.1695 27.2225 19.0046 28.5413 20.4984C29.86 21.9921 30.6045 24.0221 30.611 26.1418Z" fill="#C2DB6F"/>
<path d="M117.099 42.2999C116.633 41.8331 116.401 41.1754 116.4 40.3269C116.4 39.4783 116.633 38.8206 117.099 38.3536C117.565 37.8863 118.211 37.6526 119.036 37.6526C119.743 37.6526 120.288 37.8166 120.673 38.1447C121.081 38.5189 121.353 39.0526 121.437 39.6425L120.555 39.8668C120.539 39.6823 120.491 39.5032 120.414 39.34C120.336 39.1767 120.232 39.0326 120.105 38.916C119.867 38.7162 119.511 38.6163 119.036 38.6161C118.448 38.6161 118.014 38.7588 117.733 39.0441C117.451 39.3294 117.311 39.7572 117.311 40.3275C117.311 40.8976 117.451 41.3253 117.733 41.6106C118.014 41.896 118.448 42.0386 119.036 42.0386C119.53 42.0386 119.889 41.9351 120.115 41.7282C120.364 41.4699 120.521 41.1159 120.555 40.7339L121.437 40.9583C121.354 41.5599 121.08 42.106 120.668 42.493C120.28 42.8321 119.736 43.0013 119.036 43.0006C118.211 43.0005 117.565 42.7669 117.099 42.2999Z" fill="#F8F4E5"/>
<path d="M126.496 41.6208C126.781 41.343 126.923 40.9117 126.923 40.3267C126.923 39.7492 126.787 39.3197 126.515 39.038C126.243 38.7564 125.81 38.6155 125.216 38.6155C124.641 38.6155 124.214 38.7582 123.936 39.0435C123.657 39.3288 123.518 39.7566 123.519 40.3267C123.519 40.9184 123.662 41.3516 123.95 41.6261C124.238 41.9006 124.66 42.038 125.216 42.0382C125.785 42.0381 126.212 41.8989 126.496 41.6208ZM123.312 42.2999C122.837 41.8331 122.599 41.1753 122.599 40.3267C122.599 39.4707 122.837 38.8113 123.312 38.3485C123.787 37.8857 124.422 37.6538 125.216 37.6528C126.023 37.6528 126.662 37.8864 127.134 38.3538C127.606 38.8212 127.842 39.4788 127.842 40.3267C127.842 41.1821 127.605 41.8416 127.129 42.3052C126.654 42.7688 126.016 43.0005 125.216 43.0002C124.422 43.0002 123.788 42.7668 123.312 42.2999" fill="#F8F4E5"/>
<path d="M133.45 38.2194C133.769 38.5976 133.928 39.1573 133.928 39.8987V42.8934H133.019V40.1559C133.019 39.6278 132.911 39.2374 132.695 38.9848C132.48 38.7322 132.153 38.6055 131.715 38.6048C131.505 38.5894 131.294 38.6259 131.098 38.7117C130.901 38.7976 130.723 38.9309 130.576 39.1024C130.31 39.4333 130.177 39.9234 130.177 40.5725V42.8934H129.258V37.7601H130.037L130.177 39.1395H130.196C130.324 38.7037 130.564 38.3218 130.885 38.0434C131.22 37.7735 131.624 37.6362 132.034 37.6522C132.659 37.6522 133.131 37.8412 133.45 38.2194Z" fill="#F8F4E5"/>
<path d="M136.062 42.5943C135.874 42.4788 135.712 42.3169 135.586 42.1207C135.46 41.9244 135.375 41.6986 135.335 41.4598L136.189 41.2141C136.211 41.3679 136.26 41.5148 136.334 41.6456C136.409 41.7764 136.506 41.8882 136.62 41.974C136.912 42.1564 137.244 42.2415 137.576 42.2197C137.863 42.2385 138.148 42.1742 138.406 42.0327C138.495 41.9812 138.569 41.9021 138.619 41.8046C138.67 41.7071 138.695 41.5952 138.693 41.4819C138.691 41.3856 138.667 41.2915 138.623 41.2089C138.579 41.1264 138.518 41.0582 138.444 41.0111C138.203 40.8658 137.941 40.7717 137.67 40.7333L136.742 40.5618C136.379 40.5262 136.036 40.3551 135.766 40.0749C135.657 39.9474 135.572 39.7959 135.515 39.6296C135.459 39.4634 135.433 39.2858 135.438 39.1077C135.431 38.8939 135.474 38.6818 135.562 38.4929C135.65 38.304 135.781 38.145 135.94 38.0318C136.274 37.7788 136.748 37.6522 137.361 37.6518C138.561 37.6518 139.277 38.1901 139.509 39.2669L138.664 39.4701C138.627 39.1504 138.481 38.8603 138.257 38.6626C138.005 38.4689 137.704 38.3733 137.4 38.3904C137.129 38.3717 136.859 38.4343 136.616 38.5719C136.534 38.6225 136.465 38.6983 136.418 38.7908C136.371 38.8834 136.347 38.9891 136.349 39.0961C136.362 39.4526 136.612 39.6772 137.099 39.7698L138.159 39.9513C138.553 39.9916 138.928 40.1627 139.238 40.4434C139.358 40.5652 139.453 40.7156 139.516 40.8838C139.579 41.052 139.609 41.2341 139.604 41.417C139.611 41.6497 139.565 41.8807 139.469 42.0864C139.373 42.2922 139.232 42.4656 139.058 42.589C138.696 42.8629 138.186 42.9998 137.53 42.9998C137.017 43.018 136.51 42.8779 136.062 42.5943Z" fill="#F8F4E5"/>
<path d="M142.519 38.6795V41.9313L142.547 41.9633H143.991V42.8934H142.659C142.517 42.9037 142.374 42.8811 142.24 42.827C142.105 42.7728 141.982 42.6883 141.877 42.5783C141.78 42.4583 141.706 42.3173 141.658 42.1637C141.611 42.0102 141.591 41.8473 141.6 41.6848V38.6795L141.056 38.6903H140.446V37.7602H141.056L141.6 37.7709L141.816 36.1562H142.519V37.7713L143.1 37.7602H144.113V38.6903H143.1L142.519 38.6795Z" fill="#F8F4E5"/>
<path d="M146.355 37.7602L146.486 39.1609H146.505C146.599 38.7063 146.842 38.3101 147.185 38.0536C147.551 37.8161 147.969 37.6996 148.39 37.7169C148.471 37.7169 148.611 37.7242 148.812 37.7388L148.681 38.7116C148.543 38.6975 148.437 38.6903 148.362 38.6903C147.872 38.6707 147.395 38.8637 147.025 39.2303C146.672 39.5902 146.495 40.1126 146.496 40.7975V42.8936H145.576V37.7602H146.355Z" fill="#F8F4E5"/>
<path d="M154.71 42.8934H153.941L153.801 41.514H153.782C153.678 41.9607 153.443 42.3533 153.116 42.6264C152.769 42.8873 152.359 43.018 151.944 43.0004C151.319 43.0004 150.845 42.8113 150.523 42.4331C150.201 42.0549 150.04 41.4954 150.04 40.7546V37.7599H150.959V40.4984C150.959 41.0265 151.067 41.4169 151.283 41.6697C151.499 41.9224 151.826 42.0489 152.263 42.0493C152.472 42.0636 152.682 42.0265 152.878 41.9406C153.073 41.8547 153.251 41.7219 153.398 41.5513C153.667 41.2196 153.801 40.7293 153.801 40.0804V37.7599H154.71V42.8934Z" fill="#F8F4E5"/>
<path d="M158.077 38.6795V41.9313L158.105 41.9633H159.549V42.8934H158.218C158.075 42.9038 157.933 42.8812 157.798 42.8271C157.663 42.7729 157.54 42.6883 157.435 42.5783C157.338 42.4584 157.264 42.3174 157.216 42.1638C157.168 42.0103 157.149 41.8473 157.158 41.6848V38.6795L156.614 38.6903H156.005V37.7602H156.614L157.158 37.7709L157.373 36.1562H158.077V37.7713L158.658 37.7602H159.671V38.6903H158.658L158.077 38.6795Z" fill="#F8F4E5"/>
<path d="M164.674 41.6208C164.959 41.343 165.101 40.9117 165.101 40.3267C165.101 39.7492 164.965 39.3197 164.693 39.038C164.421 38.7564 163.988 38.6155 163.394 38.6155C162.819 38.6155 162.392 38.7582 162.114 39.0435C161.836 39.3288 161.697 39.7566 161.697 40.3267C161.697 40.9184 161.84 41.3516 162.128 41.6261C162.416 41.9006 162.838 42.038 163.394 42.0382C163.963 42.0381 164.389 41.8989 164.674 41.6208ZM161.49 42.2999C161.015 41.8331 160.777 41.1753 160.778 40.3267C160.778 39.4707 161.015 38.8113 161.49 38.3485C161.965 37.8857 162.6 37.6538 163.394 37.6528C164.201 37.6528 164.84 37.8864 165.312 38.3538C165.784 38.8212 166.02 39.4788 166.02 40.3267C166.02 41.1821 165.783 41.8416 165.307 42.3052C164.832 42.7688 164.194 43.0005 163.394 43.0002C162.6 43.0002 161.965 42.7668 161.49 42.2999Z" fill="#F8F4E5"/>
<path d="M168.215 37.7602L168.346 39.1609H168.365C168.459 38.7063 168.702 38.3101 169.045 38.0536C169.411 37.8161 169.829 37.6996 170.25 37.7169C170.331 37.7169 170.472 37.7242 170.672 37.7388L170.54 38.7116C170.403 38.6975 170.297 38.6903 170.222 38.6903C169.732 38.6706 169.255 38.8636 168.885 39.2303C168.532 39.5902 168.356 40.1126 168.356 40.7975V42.8936H167.436V37.7602H168.215Z" fill="#F8F4E5"/>
<path d="M174.287 41.9954C174.542 41.8283 174.754 41.5865 174.901 41.2949C175.052 40.9944 175.127 40.6517 175.117 40.3054L174.376 40.4337C173.869 40.5338 173.491 40.6176 173.241 40.6849C173.023 40.7367 172.816 40.8364 172.631 40.9783C172.556 41.0378 172.495 41.118 172.454 41.2115C172.413 41.305 172.393 41.4088 172.397 41.5132C172.394 41.6239 172.418 41.7333 172.466 41.8296C172.514 41.9259 172.584 42.0054 172.669 42.0596C172.912 42.2039 173.184 42.2704 173.457 42.2518C173.749 42.2524 174.035 42.1638 174.287 41.9954ZM175.412 38.1449C175.605 38.3065 175.759 38.5202 175.861 38.7666C175.964 39.0131 176.011 39.2847 175.998 39.557V42.8934H175.23L175.107 41.5995H175.089C174.965 42.0284 174.715 42.395 174.381 42.637C174.021 42.8872 173.606 43.0133 173.185 43.0002C172.75 43.0271 172.318 42.8962 171.952 42.6262C171.807 42.5124 171.689 42.3587 171.609 42.1792C171.53 41.9998 171.491 41.8004 171.497 41.5995C171.489 41.4425 171.507 41.2852 171.552 41.1366C171.597 40.9879 171.668 40.8509 171.759 40.7334C171.997 40.4884 172.286 40.3187 172.599 40.2412C173.178 40.0763 173.765 39.9477 174.357 39.8561L175.117 39.7174L175.107 39.5034C175.089 38.8253 174.667 38.4866 173.841 38.4872C173.41 38.4872 173.091 38.578 172.884 38.7595C172.775 38.8663 172.687 38.9981 172.626 39.1465C172.564 39.2948 172.531 39.4562 172.528 39.6202L171.759 39.405C171.77 39.1466 171.833 38.8945 171.944 38.6686C172.055 38.4427 172.21 38.2491 172.397 38.1029C172.833 37.7858 173.343 37.6288 173.86 37.653C174.41 37.6221 174.955 37.7947 175.412 38.1451" fill="#F8F4E5"/>
</svg>
